<svg width="33" height="25" viewBox="0 0 33 25" fill="none" xmlns="http://www.w3.org/2000/svg">
<path d="M11.8184 0.000194206C11.8538 0.000189257 11.8892 0.000184308 11.9257 0.000179209C12.042 0.000202693 12.1582 0.00046579 12.2745 0.000732011C12.3554 0.000795263 12.4363 0.000843484 12.5172 0.000877322C12.7296 0.00100637 12.942 0.00133901 13.1543 0.00171454C13.3713 0.00206196 13.5882 0.00221617 13.8052 0.0023868C14.2305 0.00274965 14.6557 0.00332109 15.081 0.00404158C14.8885 0.546608 14.6938 1.08816 14.4918 1.62729C14.4226 1.81201 14.3537 1.99682 14.2847 2.18161C14.2699 2.22131 14.255 2.26102 14.2397 2.30193C14.0593 2.78508 13.8798 3.26859 13.7003 3.75209C13.6534 3.87839 13.6065 4.00469 13.5596 4.13099C13.493 4.31051 13.4263 4.49004 13.3596 4.66956C13.2384 4.99613 13.1171 5.32269 12.9958 5.64924C12.9822 5.68583 12.9822 5.68583 12.9684 5.72315C12.9227 5.84616 12.877 5.96917 12.8313 6.09218C12.7488 6.31435 12.6662 6.53653 12.5837 6.7587C12.5378 6.88227 12.4919 7.00584 12.446 7.12941C12.4277 7.17884 12.4093 7.22826 12.391 7.27768C12.3542 7.37653 12.3175 7.47537 12.2808 7.57422C12.2717 7.59869 12.2626 7.62315 12.2533 7.64836C12.2349 7.69777 12.2166 7.74719 12.1982 7.79661C12.1523 7.92023 12.1064 8.04385 12.0605 8.16746C11.9781 8.38916 11.8958 8.61086 11.8134 8.83255C11.7679 8.95517 11.7223 9.07779 11.6768 9.20041C11.6677 9.22473 11.6587 9.24904 11.6494 9.2741C11.5256 9.60743 11.4019 9.94081 11.2783 10.2742C11.2095 10.4597 11.1408 10.6451 11.072 10.8306C11.0256 10.9556 10.9793 11.0806 10.933 11.2056C10.671 11.9132 10.4034 12.6184 10.1331 13.3228C10.6587 13.3228 11.1843 13.3228 11.7259 13.3228C11.7762 13.1551 11.7762 13.1551 11.8275 12.9839C11.8468 12.9266 11.8665 12.8694 11.8871 12.8126C11.8977 12.7834 11.9082 12.7543 11.9191 12.7243C11.9302 12.694 11.9413 12.6637 11.9528 12.6324C11.9647 12.5998 11.9766 12.5672 11.9889 12.5337C12.0141 12.465 12.0393 12.3963 12.0646 12.3277C12.1024 12.2249 12.1397 12.1221 12.177 12.0192C12.6624 10.6932 13.36 9.62565 14.6707 9.01031C14.901 8.90833 15.1412 8.83945 15.386 8.78155C15.4178 8.77312 15.4497 8.76469 15.4826 8.756C15.9011 8.65704 16.3166 8.66699 16.7446 8.66995C16.8259 8.67014 16.9073 8.67029 16.9886 8.67039C17.201 8.67077 17.4135 8.67177 17.6259 8.6729C17.8433 8.67395 18.0608 8.67441 18.2782 8.67492C18.7036 8.676 19.129 8.67773 19.5544 8.67988C19.3022 9.40438 19.3022 9.40438 19.1841 9.71856C19.1726 9.74945 19.1611 9.78033 19.1492 9.81216C19.1243 9.87864 19.0995 9.9451 19.0746 10.0116C19.004 10.1999 18.9337 10.3884 18.8634 10.5768C18.8482 10.6173 18.8331 10.6579 18.8175 10.6997C18.6362 11.1852 18.4558 11.6711 18.2754 12.1569C18.2285 12.2832 18.1817 12.4094 18.1348 12.5356C18.0681 12.7152 18.0014 12.8947 17.9348 13.0743C17.8135 13.4009 17.6922 13.7274 17.5709 14.054C17.5619 14.0784 17.5528 14.1027 17.5435 14.1279C17.4978 14.2509 17.4521 14.3739 17.4064 14.4969C17.3239 14.7191 17.2414 14.9412 17.1588 15.1634C17.1129 15.287 17.0671 15.4106 17.0212 15.5341C17.0028 15.5836 16.9844 15.633 16.9661 15.6824C16.9294 15.7812 16.8927 15.8801 16.8559 15.9789C16.8469 16.0034 16.8378 16.0279 16.8284 16.0531C16.8101 16.1025 16.7917 16.1519 16.7733 16.2013C16.7274 16.325 16.6815 16.4486 16.6356 16.5722C16.5533 16.7939 16.4709 17.0156 16.3885 17.2373C16.343 17.3599 16.2974 17.4825 16.2519 17.6051C16.2428 17.6294 16.2338 17.6538 16.2245 17.6788C16.1007 18.0121 15.977 18.3455 15.8534 18.679C15.7847 18.8644 15.7159 19.0499 15.6471 19.2353C15.6007 19.3603 15.5544 19.4853 15.5081 19.6103C15.321 20.1155 15.1329 20.6203 14.9416 21.1239C14.9226 21.1737 14.9038 21.2236 14.8849 21.2734C14.6862 21.7998 14.4621 22.2748 14.0982 22.7103C14.07 22.7441 14.0418 22.7778 14.0128 22.8125C13.3571 23.5724 12.4116 24.061 11.4209 24.2015C11.2915 24.2099 11.1628 24.2101 11.0332 24.2092C10.9781 24.2092 10.9781 24.2092 10.9219 24.2092C10.8018 24.2092 10.6817 24.2087 10.5616 24.2081C10.4778 24.208 10.394 24.2079 10.3102 24.2078C10.0906 24.2076 9.87102 24.2069 9.65145 24.2062C9.427 24.2055 9.20254 24.2052 8.97808 24.2048C8.53842 24.2041 8.09876 24.2029 7.6591 24.2015C7.79955 23.7969 7.94249 23.3935 8.09198 22.9922C8.10985 22.9441 8.12771 22.896 8.14557 22.8479C8.19256 22.7213 8.23963 22.5948 8.28673 22.4684C8.31596 22.3898 8.34518 22.3113 8.37439 22.2327C8.62048 21.5711 8.86729 20.9096 9.11636 20.2491C9.12831 20.2173 9.14026 20.1856 9.15257 20.1529C9.1856 20.0651 9.21874 19.9775 9.25192 19.8898C9.26137 19.8647 9.27083 19.8395 9.28057 19.8137C9.32282 19.7024 9.36803 19.5975 9.42137 19.4908C8.89573 19.4908 8.3701 19.4908 7.82854 19.4908C7.79499 19.6026 7.76144 19.7145 7.72688 19.8297C7.7075 19.8872 7.68762 19.9446 7.66675 20.0016C7.6561 20.0308 7.64545 20.06 7.63447 20.0901C7.62324 20.1206 7.61202 20.151 7.60045 20.1824C7.58245 20.2314 7.58245 20.2314 7.56408 20.2814C7.53876 20.3502 7.51338 20.419 7.48795 20.4878C7.44988 20.5909 7.41214 20.6942 7.37441 20.7974C7.25902 21.1113 7.14047 21.4228 7.005 21.7286C6.99436 21.7526 6.98371 21.7767 6.97275 21.8014C6.64338 22.5286 6.07406 23.1804 5.38848 23.5915C5.36746 23.6041 5.34643 23.6168 5.32477 23.6298C4.72027 23.9873 4.04902 24.2143 3.34335 24.2092C3.30694 24.2092 3.27052 24.2092 3.233 24.2092C3.114 24.2092 2.995 24.2087 2.876 24.2081C2.79295 24.208 2.70991 24.2079 2.62686 24.2078C2.4093 24.2076 2.19174 24.2069 1.97418 24.2062C1.75177 24.2055 1.52935 24.2052 1.30694 24.2048C0.871293 24.2041 0.435647 24.2029 0 24.2015C0.0173233 24.0638 0.0372345 23.937 0.0859739 23.807C0.102114 23.7634 0.102113 23.7634 0.118579 23.7189C0.13043 23.6877 0.14228 23.6564 0.15449 23.6242C0.167068 23.5904 0.179646 23.5566 0.192606 23.5218C0.234796 23.4087 0.277319 23.2957 0.319835 23.1827C0.350214 23.1014 0.380567 23.0201 0.410897 22.9388C0.467937 22.7859 0.525045 22.6331 0.582257 22.4803C0.695943 22.1767 0.808982 21.8728 0.921776 21.5688C0.930615 21.545 0.939454 21.5212 0.948561 21.4966C0.984691 21.3993 1.02082 21.3019 1.05694 21.2045C1.15019 20.9532 1.24356 20.7019 1.33693 20.4506C1.38442 20.3228 1.43191 20.195 1.4794 20.0672C1.4888 20.0419 1.4982 20.0166 1.50788 19.9905C1.6099 19.7159 1.7119 19.4413 1.8139 19.1667C1.82296 19.1423 1.83203 19.1179 1.84136 19.0928C1.88708 18.9697 1.9328 18.8466 1.97852 18.7235C2.06105 18.5013 2.14359 18.2791 2.22612 18.0569C2.27202 17.9333 2.31792 17.8097 2.36381 17.6861C2.38217 17.6367 2.40053 17.5873 2.41888 17.5379C2.42797 17.5134 2.43706 17.489 2.44642 17.4637C3.35509 15.0173 4.26376 12.5709 6.05357 7.75214C6.06265 7.72768 6.07174 7.70321 6.0811 7.67801C6.09946 7.62859 6.11781 7.57917 6.13617 7.52975C6.18209 7.40612 6.22801 7.28248 6.27393 7.15884C6.35617 6.93741 6.43842 6.71599 6.52069 6.49458C6.56612 6.37232 6.61154 6.25006 6.65696 6.12781C6.66598 6.10355 6.67499 6.07929 6.68427 6.0543C6.80986 5.71623 6.93524 5.37809 7.06047 5.0399C7.13067 4.85031 7.20092 4.66075 7.27119 4.47119C7.31891 4.34247 7.36659 4.21374 7.41419 4.08497C7.75104 3.17385 7.75104 3.17385 7.913 2.76647C7.92839 2.72761 7.92839 2.72761 7.94408 2.68796C8.16358 2.14325 8.47633 1.6851 8.87913 1.25797C8.89988 1.23504 8.92063 1.2121 8.94201 1.18847C9.49876 0.596103 10.2599 0.270514 11.0318 0.0723511C11.0545 0.0665081 11.0773 0.060665 11.1007 0.0546449C11.3407 0.00626918 11.5745 -0.000708123 11.8184 0.000194206Z" fill="#FEFEFD"/>
<path d="M24.3665 0.0379639C24.3888 0.0379639 24.4112 0.0379639 24.4343 0.0379639C24.7892 1.03023 25.1433 2.02279 25.4954 3.01605C25.7018 3.59801 25.9082 4.17994 26.116 4.76138C26.1259 4.78904 26.1358 4.8167 26.146 4.8452C26.2079 5.01843 26.2699 5.19164 26.3318 5.36485C26.4513 5.69886 26.5707 6.03288 26.69 6.36692C26.7042 6.40656 26.7184 6.4462 26.733 6.48705C26.9704 7.15161 27.2066 7.81662 27.4423 8.48178C27.6808 9.1546 27.9207 9.82688 28.162 10.4987C28.3609 11.0528 28.5583 11.6075 28.7546 12.1626C28.9478 12.7093 29.1424 13.2555 29.3377 13.8015C29.583 14.4875 29.8271 15.1738 30.0706 15.8604C30.2769 16.4423 30.4834 17.0243 30.6912 17.6057C30.701 17.6334 30.7109 17.661 30.7211 17.6895C30.783 17.8627 30.845 18.036 30.9069 18.2092C31.0264 18.5432 31.1458 18.8772 31.2652 19.2112C31.2793 19.2508 31.2934 19.2903 31.308 19.331C31.5403 19.9813 31.7715 20.6319 32.0023 21.2828C32.2206 21.8986 32.4392 22.5144 32.6589 23.1298C32.6694 23.1591 32.6798 23.1884 32.6906 23.2187C32.7197 23.3001 32.7488 23.3816 32.7779 23.4631C32.7902 23.4977 32.7902 23.4977 32.8028 23.533C32.8106 23.5548 32.8184 23.5765 32.8264 23.599C32.8339 23.62 32.8414 23.641 32.8491 23.6627C32.8658 23.708 32.8833 23.753 32.9013 23.7977C32.9106 23.8211 32.92 23.8445 32.9296 23.8685C32.9382 23.8894 32.9467 23.9102 32.9556 23.9316C32.9785 24.0122 32.9775 24.0843 32.9745 24.1676C32.5205 24.17 32.0665 24.1718 31.6125 24.1729C31.4016 24.1734 31.1907 24.1742 30.9798 24.1753C30.7759 24.1764 30.572 24.177 30.3681 24.1773C30.2907 24.1775 30.2134 24.1778 30.136 24.1784C29.5892 24.1821 29.0608 24.16 28.5392 23.9791C28.5144 23.9707 28.4897 23.9622 28.4643 23.9535C27.9769 23.7782 27.5384 23.5205 27.1454 23.1848C27.1115 23.1567 27.0775 23.1287 27.0424 23.0997C26.3849 22.5314 26.0317 21.7881 25.7469 20.9839C25.6978 20.846 25.6481 20.7082 25.5986 20.5704C25.5335 20.3894 25.4684 20.2084 25.4038 20.0272C25.3937 19.9989 25.3836 19.9707 25.3733 19.9416C25.3541 19.8881 25.335 19.8345 25.316 19.7809C25.27 19.6507 25.27 19.6507 25.2137 19.5247C22.552 19.5135 19.8903 19.5023 17.1479 19.4908C17.2073 19.293 17.2647 19.1031 17.3361 18.9107C17.3441 18.8891 17.3522 18.8674 17.3604 18.8451C17.3866 18.7744 17.4129 18.7038 17.4392 18.6333C17.4579 18.5828 17.4766 18.5324 17.4953 18.482C17.5346 18.3763 17.5739 18.2706 17.6133 18.1649C17.6626 18.0326 17.7117 17.9002 17.7608 17.7678C17.949 17.2601 18.139 16.7532 18.3359 16.2488C18.358 16.192 18.358 16.192 18.3805 16.1341C18.5659 15.6631 18.7877 15.238 19.1136 14.8479C19.1413 14.8146 19.1691 14.7812 19.1978 14.7469C19.8054 14.0414 20.6434 13.5728 21.5536 13.3906C21.5828 13.3847 21.612 13.3788 21.6421 13.3726C21.9255 13.3199 22.2064 13.3083 22.4941 13.3017C22.5412 13.3004 22.5883 13.299 22.6355 13.2977C22.7493 13.2945 22.8631 13.2916 22.977 13.289C22.683 12.4682 22.389 11.6474 22.0936 10.8272C22.043 10.6868 21.9925 10.5464 21.9421 10.406C21.8337 10.1042 21.725 9.80253 21.6137 9.50172C21.5681 9.37825 21.5228 9.25466 21.4776 9.13106C21.4565 9.07386 21.4353 9.01674 21.4139 8.95967C21.3847 8.88193 21.3561 8.80399 21.3276 8.72598C21.319 8.70351 21.3104 8.68104 21.3015 8.65788C21.2239 8.44173 21.2739 8.28158 21.3533 8.07314C21.3755 8.01428 21.3755 8.01428 21.3982 7.95423C21.4147 7.91124 21.4311 7.86824 21.4476 7.82525C21.4649 7.77967 21.4822 7.73409 21.4994 7.6885C21.5366 7.59041 21.5738 7.49236 21.6112 7.39435C21.702 7.15608 21.7922 6.91758 21.8824 6.67911C21.9033 6.62393 21.9242 6.56875 21.9451 6.51358C22.1583 5.95057 22.3681 5.38635 22.5771 4.82178C22.914 3.9121 23.2544 3.00384 23.597 2.09631C23.6418 1.97759 23.6866 1.85887 23.7314 1.74014C23.7443 1.70611 23.7443 1.70611 23.7574 1.67139C23.9625 1.1277 24.1655 0.5832 24.3665 0.0379639Z" fill="#FEFEFD"/>
<path d="M19.4775 0.017055C19.5132 0.0170501 19.549 0.0170451 19.5858 0.01704C19.7033 0.0170635 19.8209 0.0173268 19.9384 0.0175928C20.0201 0.0176561 20.1018 0.0177043 20.1836 0.0177381C20.3982 0.0178673 20.6129 0.0182 20.8276 0.0185753C21.0468 0.0189226 21.266 0.0190769 21.4852 0.0192476C21.915 0.0196106 22.3449 0.0201822 22.7747 0.0209024C22.7492 0.188377 22.7034 0.337961 22.6424 0.495495C22.6269 0.536294 22.6269 0.536294 22.6111 0.577917C22.5761 0.669786 22.5409 0.761553 22.5057 0.853326C22.4672 0.954195 22.4288 1.05509 22.3904 1.15599C22.3622 1.22997 22.3341 1.30394 22.3059 1.3779C22.1935 1.67283 22.0821 1.96814 21.9712 2.26361C21.9422 2.34092 21.9131 2.41821 21.8841 2.49551C21.7684 2.80335 21.7684 2.80335 21.6529 3.11125C21.4707 3.59703 21.2878 4.08242 21.0958 4.56441C21.0824 4.59817 21.069 4.63193 21.0552 4.66671C20.6295 5.7259 19.8537 6.5415 18.8084 7.00795C18.2811 7.23103 17.7325 7.34713 17.1612 7.34499C17.1086 7.345 17.1086 7.345 17.0549 7.34501C16.9398 7.34498 16.8246 7.34472 16.7095 7.34445C16.6293 7.34439 16.5492 7.34434 16.469 7.34431C16.2586 7.34418 16.0483 7.34385 15.8379 7.34347C15.623 7.34312 15.4081 7.34297 15.1932 7.3428C14.7719 7.34244 14.3507 7.34186 13.9294 7.34114C13.9876 7.1643 14.0474 6.9884 14.1122 6.81385C14.1276 6.77244 14.143 6.73103 14.1588 6.68836C14.1755 6.64361 14.1921 6.59887 14.2088 6.55413C14.2264 6.50654 14.2441 6.45895 14.2618 6.41136C14.319 6.25739 14.3763 6.10346 14.4336 5.94954C14.4533 5.89644 14.4731 5.84335 14.4928 5.79026C14.5734 5.5739 14.6539 5.35754 14.7345 5.14121C14.838 4.86365 14.9412 4.586 15.0439 4.30817C15.1156 4.11434 15.1875 3.9206 15.2595 3.7269C15.2888 3.64808 15.318 3.56922 15.347 3.49032C15.8717 2.06642 16.5489 0.99955 17.9623 0.325912C18.4378 0.115418 18.9601 0.0151659 19.4775 0.017055Z" fill="#FEFEFD"/>
</svg>
